<mxfile host="app.diagrams.net" modified="2022-03-11T00:36:49.358Z" agent="5.0 (X11; Linux x86_64) AppleWebKit/537.36 (KHTML, like Gecko) Chrome/96.0.4664.113 Safari/537.36" etag="UwVP2Pn_s6fv_QXYqq4p" version="17.1.0" type="github" pages="5">
  <diagram id="rVjcZ1eOST21J0QNa4Qz" name="Everything is Object">
    <mxGraphModel dx="1181" dy="668" grid="1" gridSize="10" guides="1" tooltips="1" connect="1" arrows="1" fold="1" page="1" pageScale="1" pageWidth="1700" pageHeight="1100" math="0" shadow="0">
      <root>
        <mxCell id="0" />
        <mxCell id="1" parent="0" />
        <mxCell id="k4Zpvjsy6rELyzZ7Q7Eu-7" value="JavaScript Data Types" style="swimlane;fontFamily=Comfortaa;fontSource=https%3A%2F%2Ffonts.googleapis.com%2Fcss%3Ffamily%3DComfortaa;fontSize=20;" parent="1" vertex="1">
          <mxGeometry x="190" y="190" width="630" height="280" as="geometry" />
        </mxCell>
        <mxCell id="k4Zpvjsy6rELyzZ7Q7Eu-10" value="Primitive" style="swimlane;fontStyle=0;childLayout=stackLayout;horizontal=1;startSize=30;horizontalStack=0;resizeParent=1;resizeParentMax=0;resizeLast=0;collapsible=1;marginBottom=0;fontFamily=Comfortaa;fontSource=https%3A%2F%2Ffonts.googleapis.com%2Fcss%3Ffamily%3DComfortaa;fontSize=20;" parent="k4Zpvjsy6rELyzZ7Q7Eu-7" vertex="1">
          <mxGeometry x="10" y="30" width="140" height="210" as="geometry" />
        </mxCell>
        <mxCell id="k4Zpvjsy6rELyzZ7Q7Eu-11" value="Boolean" style="text;strokeColor=none;fillColor=none;align=left;verticalAlign=middle;spacingLeft=4;spacingRight=4;overflow=hidden;points=[[0,0.5],[1,0.5]];portConstraint=eastwest;rotatable=0;fontFamily=Comfortaa;fontSource=https%3A%2F%2Ffonts.googleapis.com%2Fcss%3Ffamily%3DComfortaa;" parent="k4Zpvjsy6rELyzZ7Q7Eu-10" vertex="1">
          <mxGeometry y="30" width="140" height="30" as="geometry" />
        </mxCell>
        <mxCell id="k4Zpvjsy6rELyzZ7Q7Eu-12" value="Null" style="text;strokeColor=none;fillColor=none;align=left;verticalAlign=middle;spacingLeft=4;spacingRight=4;overflow=hidden;points=[[0,0.5],[1,0.5]];portConstraint=eastwest;rotatable=0;fontFamily=Comfortaa;fontSource=https%3A%2F%2Ffonts.googleapis.com%2Fcss%3Ffamily%3DComfortaa;" parent="k4Zpvjsy6rELyzZ7Q7Eu-10" vertex="1">
          <mxGeometry y="60" width="140" height="30" as="geometry" />
        </mxCell>
        <mxCell id="k4Zpvjsy6rELyzZ7Q7Eu-13" value="Undefined" style="text;strokeColor=none;fillColor=none;align=left;verticalAlign=middle;spacingLeft=4;spacingRight=4;overflow=hidden;points=[[0,0.5],[1,0.5]];portConstraint=eastwest;rotatable=0;fontFamily=Comfortaa;fontSource=https%3A%2F%2Ffonts.googleapis.com%2Fcss%3Ffamily%3DComfortaa;" parent="k4Zpvjsy6rELyzZ7Q7Eu-10" vertex="1">
          <mxGeometry y="90" width="140" height="30" as="geometry" />
        </mxCell>
        <mxCell id="k4Zpvjsy6rELyzZ7Q7Eu-14" value="Number" style="text;strokeColor=none;fillColor=none;align=left;verticalAlign=middle;spacingLeft=4;spacingRight=4;overflow=hidden;points=[[0,0.5],[1,0.5]];portConstraint=eastwest;rotatable=0;fontFamily=Comfortaa;fontSource=https%3A%2F%2Ffonts.googleapis.com%2Fcss%3Ffamily%3DComfortaa;" parent="k4Zpvjsy6rELyzZ7Q7Eu-10" vertex="1">
          <mxGeometry y="120" width="140" height="30" as="geometry" />
        </mxCell>
        <mxCell id="k4Zpvjsy6rELyzZ7Q7Eu-15" value="String" style="text;strokeColor=none;fillColor=none;align=left;verticalAlign=middle;spacingLeft=4;spacingRight=4;overflow=hidden;points=[[0,0.5],[1,0.5]];portConstraint=eastwest;rotatable=0;fontFamily=Comfortaa;fontSource=https%3A%2F%2Ffonts.googleapis.com%2Fcss%3Ffamily%3DComfortaa;" parent="k4Zpvjsy6rELyzZ7Q7Eu-10" vertex="1">
          <mxGeometry y="150" width="140" height="30" as="geometry" />
        </mxCell>
        <mxCell id="k4Zpvjsy6rELyzZ7Q7Eu-16" value="Symbol" style="text;strokeColor=none;fillColor=none;align=left;verticalAlign=middle;spacingLeft=4;spacingRight=4;overflow=hidden;points=[[0,0.5],[1,0.5]];portConstraint=eastwest;rotatable=0;fontFamily=Comfortaa;fontSource=https%3A%2F%2Ffonts.googleapis.com%2Fcss%3Ffamily%3DComfortaa;" parent="k4Zpvjsy6rELyzZ7Q7Eu-10" vertex="1">
          <mxGeometry y="180" width="140" height="30" as="geometry" />
        </mxCell>
        <mxCell id="k4Zpvjsy6rELyzZ7Q7Eu-17" value="Object" style="swimlane;fontStyle=0;childLayout=stackLayout;horizontal=1;startSize=30;horizontalStack=0;resizeParent=1;resizeParentMax=0;resizeLast=0;collapsible=1;marginBottom=0;fontFamily=Comfortaa;fontSource=https%3A%2F%2Ffonts.googleapis.com%2Fcss%3Ffamily%3DComfortaa;fontSize=20;" parent="k4Zpvjsy6rELyzZ7Q7Eu-7" vertex="1">
          <mxGeometry x="160" y="30" width="140" height="120" as="geometry" />
        </mxCell>
        <mxCell id="k4Zpvjsy6rELyzZ7Q7Eu-18" value="Array" style="text;strokeColor=none;fillColor=none;align=left;verticalAlign=middle;spacingLeft=4;spacingRight=4;overflow=hidden;points=[[0,0.5],[1,0.5]];portConstraint=eastwest;rotatable=0;fontFamily=Comfortaa;fontSource=https%3A%2F%2Ffonts.googleapis.com%2Fcss%3Ffamily%3DComfortaa;" parent="k4Zpvjsy6rELyzZ7Q7Eu-17" vertex="1">
          <mxGeometry y="30" width="140" height="30" as="geometry" />
        </mxCell>
        <mxCell id="k4Zpvjsy6rELyzZ7Q7Eu-19" value="Object" style="text;strokeColor=none;fillColor=none;align=left;verticalAlign=middle;spacingLeft=4;spacingRight=4;overflow=hidden;points=[[0,0.5],[1,0.5]];portConstraint=eastwest;rotatable=0;fontFamily=Comfortaa;fontSource=https%3A%2F%2Ffonts.googleapis.com%2Fcss%3Ffamily%3DComfortaa;" parent="k4Zpvjsy6rELyzZ7Q7Eu-17" vertex="1">
          <mxGeometry y="60" width="140" height="30" as="geometry" />
        </mxCell>
        <mxCell id="k4Zpvjsy6rELyzZ7Q7Eu-20" value="Function" style="text;strokeColor=none;fillColor=none;align=left;verticalAlign=middle;spacingLeft=4;spacingRight=4;overflow=hidden;points=[[0,0.5],[1,0.5]];portConstraint=eastwest;rotatable=0;fontFamily=Comfortaa;fontSource=https%3A%2F%2Ffonts.googleapis.com%2Fcss%3Ffamily%3DComfortaa;" parent="k4Zpvjsy6rELyzZ7Q7Eu-17" vertex="1">
          <mxGeometry y="90" width="140" height="30" as="geometry" />
        </mxCell>
        <mxCell id="k4Zpvjsy6rELyzZ7Q7Eu-27" style="rounded=0;orthogonalLoop=1;jettySize=auto;html=1;fontFamily=Comfortaa;fontSource=https%3A%2F%2Ffonts.googleapis.com%2Fcss%3Ffamily%3DComfortaa;" parent="1" source="k4Zpvjsy6rELyzZ7Q7Eu-24" target="k4Zpvjsy6rELyzZ7Q7Eu-25" edge="1">
          <mxGeometry relative="1" as="geometry" />
        </mxCell>
        <mxCell id="k4Zpvjsy6rELyzZ7Q7Eu-28" style="rounded=0;orthogonalLoop=1;jettySize=auto;html=1;fontFamily=Comfortaa;fontSource=https%3A%2F%2Ffonts.googleapis.com%2Fcss%3Ffamily%3DComfortaa;" parent="1" source="k4Zpvjsy6rELyzZ7Q7Eu-24" target="k4Zpvjsy6rELyzZ7Q7Eu-26" edge="1">
          <mxGeometry relative="1" as="geometry" />
        </mxCell>
        <mxCell id="k4Zpvjsy6rELyzZ7Q7Eu-24" value="Object" style="rounded=0;whiteSpace=wrap;html=1;fontFamily=Comfortaa;fontSource=https%3A%2F%2Ffonts.googleapis.com%2Fcss%3Ffamily%3DComfortaa;fontSize=20;" parent="1" vertex="1">
          <mxGeometry x="390" y="520" width="120" height="60" as="geometry" />
        </mxCell>
        <mxCell id="k4Zpvjsy6rELyzZ7Q7Eu-25" value="Array" style="rounded=0;whiteSpace=wrap;html=1;fontFamily=Comfortaa;fontSource=https%3A%2F%2Ffonts.googleapis.com%2Fcss%3Ffamily%3DComfortaa;fontSize=20;" parent="1" vertex="1">
          <mxGeometry x="270" y="620" width="120" height="60" as="geometry" />
        </mxCell>
        <mxCell id="k4Zpvjsy6rELyzZ7Q7Eu-26" value="Function" style="rounded=0;whiteSpace=wrap;html=1;fontFamily=Comfortaa;fontSource=https%3A%2F%2Ffonts.googleapis.com%2Fcss%3Ffamily%3DComfortaa;fontSize=20;" parent="1" vertex="1">
          <mxGeometry x="510" y="620" width="120" height="60" as="geometry" />
        </mxCell>
        <mxCell id="k4Zpvjsy6rELyzZ7Q7Eu-30" value="" style="shape=image;verticalLabelPosition=bottom;labelBackgroundColor=default;verticalAlign=top;aspect=fixed;imageAspect=0;image=data:image/png,iVBORw0KGgoAAAANSUhEUgAAARwAAABHCAYAAADVyvhgAAAABHNCSVQICAgIfAhkiAAAABl0RVh0U29mdHdhcmUAZ25vbWUtc2NyZWVuc2hvdO8Dvz4AAAAtdEVYdENyZWF0aW9uIFRpbWUAV2VkIDA5IE1hciAyMDIyIDA4OjEwOjE1IFBNICswN+D/ESoAACAASURBVHic7Z1nYBzV9bef7U3aVdeqF6vYki3bsnDvjWCKDcYJNSS0mBogBBz+lAReQhIHEjqhGgi9BTfcjRsuWBaSJdvqsnrXqqy00mp33w8rCS8r2Sq7KzDzfJJm7r1zZmbnN+eee+ZekZdXlA0BAQEBDyAebQMEBAR+PgiCIyAg4DEEwREQEPAYguAICAh4DEFwBAQEPIZELvf582gbIeBZxGIJaoUGhUxJV3fnaJvzo0Ilk3PvrAux2qyUtzQ57POSK/njnIto6min1tgyShba8VGqWRA7lusnzSK7poJ2c1ffvt+kzmZyaBSmbjMN7W2jaKUz0tE2wN34eftz5exrmZ28AF9vf7KLM3nq44dpaW8ebdNGjedWv0FieDLrtr/Ce7vfGG1zfjT4qb14YM5FROj80Htryag6TWd3d9/+pfHjSQoKJTFAz6tH97C/JM/jNsb6BXLp2ElMCY1GIrZ3UNLCo9mSdxwAlVTG3JgEFBIZi8ckUWdsZXfRKXYWnqCty+Rxe3/Iee3hXJAwg7/f9CKpcdPwVmmRSmSE+ocDNo4VHBlt80YFhUzB7Zfcj1gs5pXN/6KprWG0TfpREKDx4uEFlxLq7cOJ2kqe2rOJDrPZoczJukq6LVbG68NIC4umsd1IiaHeI/b5qb1YPXU+102aSZjWl5KmerbkZbMuYz/fVZX2leu2WtlWkENFqwGZWEKsbyDjg8NYGp+MRCwhr6Eam230Uu/c4uEEBiYRFJRy1jJWq5mTJz9zx+EBmJ28gIev/itGk5GXNj5NzulMLp22kl+kLUen9nHbcT1BkE8wz9zyOt8VHeGfnz0xpLqJ4clIJVLqm2sprPL8G/rHiI9SzcPzLyNQ482R8iJePLSTbqu137LrT2VgMBm55YJ53HzBXLptVrd7OlE+/qyZdwlahZJDZYVsys2kqLFuwPId5i72l+SxvySPQI03yxJSWBKXzMrkKSQG6Pn73s1Ybf2fn7txi+BYLF10dbX2u08kkiCTqRGJJO44NAAx+jj+9KsnaTY28+Cbt1NSUwTA5qNf8ou05Rwv+c5tx3Y3IpGIP175Z4J99Rwr+HbI9Y2mNl7c8E/K6kpcb9xPEIVUyh9m/4JAjTeHywp54dCucz6Me0vysNhs3DZtAbekzaOhvY2TtZVus3H11IVoFUpeObKbfUMUtzpjK29nHCC9soQH5y5jfHAYiQHBnKyrcpO1Z8ctgtPYWEBjY4HTdplMRUTEbCQSGeXl37jj0MikMtb88gksVjN/eO1Wyuu/dzcnx15AraGGvdk73HJsT7By1jVMik3DZrORXnBoyPULq/IEz+YMfj15FrF+gZysq+Klw+cWm14OnM7HR6nmmonTuWv6YtZs/YSWzg6X2+clVxLp40eXpZtvSp2fqcGSXVNBQUMtCQF6vBUqF1o4NDwWNFap/IiImA3YKCraQWene4K2v11yO7H6OJ5f/3cHsQn21fPLudfz5IcPYTojeJYUmcIjVz+FxWrlurWXOrSllKn48s9fY+rqYMXjCxz6vlfNu4FVc67nnZ2v8uXBj/HzDmDlrKuZM34hvt7+ZBal89RHj2A0DTxKMGnMBVyUtpzxURPRaXypbqpg/aFPWH/oU6eyd1x6Pytm/Krvf5FIxKf/t92hzPHiDO577VaHbV4qLROiJ5MSM5mUmFTGhMTT3mlk1ZO/wGLt5lxMTZzJZdNXkRCWhEKmoKSmiK+ztvHlwY/7fThdcV0GS2LaMpbdtBZTeysdrY001ZZQV55LcfYeqorO7cVOColkfsxYWjo7eP7g9gG7UQOxKTeThAA9aWHR3JQ2h38d2DbcUxmQti4T1a3N6L11LIwdx/aCnGG1o5LJifLxx9jVSXZNuYutHDweERytNpKwsKmYTE2Ulu7HYnHPUGx0cCxXzr6WE6VZbDjsGB/yVul4ceM/+TbvYN82iVjKPSv+RIAuiG9O7nFqLzYkHrFITEFlrlOgLTkqBa1aR3VjJQsmXsjdyx9ErdBgsVqQSWRMS5zNJVNX8tHet53aVcrV/HHlI8ydsBizxczpmmJM5g6igmK567IHaWxtYH/Oboc6dc21bDz8OfFhiSSGJ1NQmcepsmyHMtmnM/r+lkllPLd6HWNC4hGJRJjMHRhNRiRiKSdKj59TbMRiCTcuvY1fzb0Bm81GcU0hImBseBJJkROYEjeVh9+5z6neSK7LUJEp1HS0NaPU6PD21RMUmURi2jJmr7iXquJMtq5bQ23ZyX7rSkRirps0A4APMg/TbBqed/JW+j4m6iNIC4thbGAIp9zQVXn12z08NP8Srp80k+rWZo4PUTBEwB3TFiKXSnlx/1aHIXRP43bBCQwcT1BQMgZDCZWV32JzY7DqytnXIRKJeGPri04CUVCZS0FlrsO2lbOuIkYfB0DO6Syn9uLDxgKQX3HKaV9U8BgA5qcsZdrYmby17WW2pW9EIpHyz5tfIS40Ab1vqFM9uUzOP29+mcTwJHZ+9xUvbXy6b4j+2oU385vFv2Np6sVOgvPx3ncAeHDV4ySGJ/P5N++z/dimAa+FudvMJ/vepbqpkqrGcpraGvnNktVcu+AmMgrPHft56FdPMG/CEo7mH+YfnzxKU1sjAMlRE3nyhn8zbewc5qcs4essRy9ruNdlOGQf+JTsA3ZvUKbQ4KePISJxKpMXXE9IzESuevBD1j12MS0Nzg9oalgUId4+1BvbOFCaP2wbDKZ29pTksnhMEhcnprhFcHLrq3j58C7unL6I389cwu83vo/RPPiX9rLEiUwOjeKLE+mkV552uX1DwW2ZxmKxhPDwmQQFjae2NoeKisNuFRs/7wAWTvoFRdUFZBUfG1QdrcYHq9UCwIn+BCfULjgFVY6Co5QrCfYJASAiMIpbnr2a9Yc+6fEiWskpzQSgrrnGqc3rFtxMYngSH+5Zx98+ftQhH2hHxkYAfL38B7Q5KXJ8j73Hz3l+uzK3cKI0q08sUuOmAZBxjpSAtPhpzJuwhIzCb3n0nXv66gPknM7k8wPvA7Ag5UKHeiO5LiPF3Gmk5nQ2R7e9ybtPrKCy8BhKtY6Zl97Rb/mZkfYXzZb8LCxD7Er9kI2n7N23SSGRKKTueYcfKivk24piVDI544KGJthL45MB2FXk/OL0NG4THK02Cp0uEoCAgCRiY5cSFJSCXO7lluNdPvNXyCQyPj/wwaDrvLn1JTq6Oui2dJNXecJpf1yv4PzAM4oIjEYsElPXXMP9r62mocVxiDLYJxiAysYyh+3RwWNYNed6TtcW8db2V5yOV9dcx5/W3cUrm//dr706tQ+h/hE0txuoaCjtt8xAqBUaEsPG0Ww0UFxTOGA5sVjC75bdC8AbW1/EbHHuemX2CHpEYJTD9uFeF1djam/mm/XPAhCdPK/fMuE6PwDy6kcufnXGVppNHYhFYvReuhG31x8ROn8idf40dhiH7EW1muwxy5XJqSilMneYN2jc1qVqaTmNydSIXK5FrfZFowkhMDCJgIBxNDeXUFV1DKvVfO6GzoG3SstnD+9AJBIBcP/KR7h/5SP9ls0tP8GdL93Q939kUAwapRenyrLp+kG/ViaVERUUQ6e5k9I6Rzc0OigWgFNlOZjMzn3/mOAEwLmbdv2iW5BKpLy94z99ntWZWK0WjuYNPPI0NqLXu8kcsMxATIxNQyyWkFH47VkTv8ZFjCc6eAy55TnklvcfoOz1ytRKx5fHcK+LK5DJ1eijx+PtH4pC5Y1MrgRA6x+KWCLFeoZwSkRigjVaAKpbXTN4UdlqQKdUEab15bTBNcmUS+KSmaAPJ0Lnh06p4nBZER9lHRlyxvBLh3dx54zFzI8Zx8zIBHLrqqhua+bj40c8Hs9xm+BYrRZMJgMmk4GWllIgE6XSh9DQafj4xCCXe1FSsnvE3SyrzcrO77awePJFfdsOn9pHfWsdUrEUkUiCRCxGIpaS84MHNTlyItD/AxATHIdUIiW/8pSTOMTo4wHIq3AOSIb4hhHsq6eqsdyh6yARS5maYA9SHi/JcKo3GJKiJvTYe+7u1A9JjbsA4Jzxm6RIe8JmyVm8IL1vGACNLY5ZtsO5LiMlKDKJ2SvuJWbCAiSS/n/OcoUG0xldV7lUikQsxoaNrkGM1A2Grp5PIMRi13UapkWMYVygvYtab2yjob3NKft5MFS2Gnh815fckDqLudGJTNCHM4FwPs9Jd5mtg8Wj31KZTAZKSnYQH38JanUgSqUfHR0jSw03mtooqs4DLmLv8R1MiEklLnQsb739MoVVZw8GJkXZH66cUmfB6e1O9RcwjgtNBKCg0vnBmjTG/mCn5zvGSfy1/ijlaprbDRjampzqDYZxEXbBOdGPvedico9d54rf+HsHAFDVNLDbHhUU3a8dw7kuIyE2ZSEr7niFloZyNv7nbqpLMmmur0AkEqNQa7n9mSNIZXLEEsck0w5zFy2dJrQKJXovHWXNjQMcYfCEaO1dqaoWw4jb6mXtvs0EaXTEBwSxZMx4Lk+aQlpYNI/u+IIui7OHPBBj/IK4Z9ZSjF2d/Pe7b8irr6HW2EJrp+e/rfL49BRWqwVzj7stlSpc0mZieBIAW9LXc+dLN2AwGvjX717v2z4QCT2jUMXVjsIkk8pYPMnuMf0wfgMwJsTeNcjrR4xS46YCcDT/oMN2udTu4itkCiTi4el8Qti4AW06G37eAUQFxVJjqKKqqeKsZXu7Ql7K/mNtErGUi6degc1mY3uG4yjZcK7LcJFIZSy7cS1isZj3/rqS3KObaa63n5vNZsVkNGDr8UxFYues9qpWu+iH63xHbItCKiNAbb9ela2uE5zO7m7KmhvYVXiSR3d+TnVrMxE6fxIC9ENq584Zi9DI5Dy8/TO+yjtOYWPtqIgNeFxwRPj5xaFS+WG1mjEaa13Sau8Pvai6gFpDNQ+8cRtNrQ08du0/8PXyG7BesK/dXT1zFEYpV/LoNX9jQszknjYds3KDfILRqnXUNFX3+8X5pNg0gL4RmV7qW+qw2qwoZao+T2Ao+Hn7o1F6YTJ30NHVPqS6KT3nUlh57gzj8vrTPXVS+92/fMYq9L6h7MjYTG7594H24V6X4RIUkYRa64+xpZ6OATxGa093SSqTO+3LrrF/irBoTPKIbVk0ZhxikZjc+io63BQT6bZakUrEWKzWIceIrDYbCqmM8cHhbrFtKLh1WFwmU6NSBeDjE0NIyBTi4y8lJCQNm62bsrIDLgkaA/ho7G+p3q5KS3szD627B2+VjtUXOyengf1NLZfaf4hT4qcjEomYED2Zf//uTYwmY19bdc01yKQyND1v/DEhPV2tfroNOo0PPl6+tJlaMbQ14aXSIusZFTB1tXOspzvx0K+eILYn/+dMe8ZFTmDBxAud2gUQiey3SiaROeSxaJRezEqaz7ULbhrw+kQGRgPgpfJG3NOOSCQizD+SpamX4KXS9pVNzz9Me6eRhLBxrJpzfd92qUTKqjnXsXrZvTQbDby+9QWHYwz3ugyXDqNd1Lx99SRM+YXj8QIjuWz1CyhU3nbb5Wqn+l8Xn8JssTAuMGTIHsOZyCQSliXYu+Zb84eXBTwYrkmZToDamw+yDg3ZO/kg8zA2bNw9YzGxfoFusnBwuCWGExY2FR+fWKftNpsVg6GY2toczGbXTAwkFkvQKL3p6Gp3yJ6taChlw+FPWDnrGtZte9mpK2GxdlNYlU9C2DgeufopurrNyKUyNhz+jBc2rOWTh7YC8K9bX8PX258XN/yTrekbiAu1e1P9dWt8NHZvykvpzWu//5CwgEgeWvd7vusJ1L686Rmej3qLUP8IXrrzXUpqimnvbMNbpSUsIBKJWMLXmdvYnbnVqe2m1gaqmyrR+4by2j0fcrqmCC+VN6F+EZjMHaw/9MmA16i5x+NIiUll3f2f09llQu8bglKuptZQQ275Cdo67BNKNbU18tqW57j7sjXcetHdXDb9SmqaqkiMSEIpU3GyLJsn3l9DY6tj7G0k12U4GGpLKMr6mtiU+ay44xWqS45jbK7BPzQeXUAkx/d9RG3pCYIik5ArNU71G9vb2JqfzSVjJ3LNxGk8vmvDsL6gXpaQgq9KQ2FjLUfKBg60j4Sp4bEsS0zhcFkhX+UNfcDgaEUxH2Ud4aqUadw760Ie2PKx2zyxc+GW+XDU6iAUCm/M5nY6Ohpoayunvv4UVVVHaWkpw2p13cmKEHHNgt8iEol5/+s3HfbVGKq4fOZV5FedoqifAHJueTZjIyagVqjIrzzF8+vX8tmB97DZbEjFUmJD4imqzufVr55lb/ZOwP7xZERgNJ/uf88pF6a1vZmUmFRUCjWltSU8+7+nyCz6fiSgud3AnqztaDU6/L2DCPIJxlutpaKhjO0Zm3n688fZkr6h3/O0YeNEaRYJYUkEaANRypUUVhXw+YH3WfvpXzice2DAa1RaW0xUcCyBOj0quRKDsZn9Obt5c/vLvLLpGQxGx6BpXsVJskqO4e8dSIA2iBC/EMrry/jswAc8+7+/0trhPBPASK7LcMk/tg2rxYxGF4BvcAwqL19qS3PY+d5jHN3+JtHJs/EPjSf3yEYMdc55S/n1NUyPjCXSJwCJWExO7dnjWz8kIUDP6qkL6LZaeXr/Fprd8PEmwO9nLkGrUPHCoZ3D/kA0r76aSSGRhGl9KW9pckmgfDiIzoeF8N57YANBPnqufHIJzcbvg3ZikZhNjx/gtS3PDSkhUODnQ6xfII8suAy5RMpr3+7h6+LBZeOGevvw2KLleMmVvJG+l12F/X+zNVIkYjFvXXETErGYJ7/ewIkRTIPxxzkXMSkkkme/2c6R8iIXWjl4zotJ1Kub7DehN3W/F53GB6lEKkzHIDAgRY11vHR4FzabjZvS5jA3OuGcdcK0vjw0/xK85Eo25Wa5TWwALFYrOT0ic9eMJaTohx74VUhl3DhlDpNCIqlqNZBZPbQsdVdyXkwxKhKJmZk0j+jgWPZm78TU1YFYLOGOS+5Ho9Tw1raXsPST2SsgAFDZYqC+vY20sGimhEfTYe6ioKH/EdQxfkH8ad7F6JRqdhae5N2MgbuyriKntoKEAD2h3j7MjkogRR9OR3c3dcYWLGfJGo/08WP5uMncPn0RCQF6cuurWLt/C8au0Zs4/7zoUsmkMl656z0iA2No7WjmZGkO4QER+GkDePCNO4eVKCfw82N2dAK3ps1DIhazs/Ak647tdwgkz4qK5+a0ecglErbmZ/NuxgE89fCIRCJmR8Vz6dhJhGnto7KmbjPHKk/zVV5W35SjXnIlK5JSSQuLJlBjH6Wrb2/li5xj7Ck+5TF7B+K88HCsViu7MrcSqAsi2DcUrVrHibLj/OW/D5w1RV9A4ExKDQ0UNNQyJTyGk3UVZNc4BpHDdb6khcXwUfYRPs0e/gjbSOzbXpBjnx7UJiJU50usbyD7S/L7loOx2qysnjofH6WanNoKPsg6zLr0/RQ3DTwHsic5LzwcAQFX4q1QDpjr4qNSY+gYWuKlu5BJJIwLDCGr2nG+n7GBIVS3NmMw/TjsPBNBcAQEBDzGeTFKJSAg8NNAEBwBAQGPIQiOgICAxxAER0BAwGMIgiMgIOAxBMEREBDwGILgCAgIeAxBcIbBvWue580P05mzYMWI2pk9fzlvfpjOk087L+37c+IPa6/n7b2PM/fiKSNqZ86yVN7e+zhPvXuXiywTcDUenURdwBGl0r6ofHu78/wy5wNr/v1bxqXGAHDLkifo6nTNDI8DoVTZZ3Bsbxud+Xp/rHj6PpwNtwiOn188wcGTAQvd3WbMZiOdnQba2mpoa6t06wqcPyXkCvvE6sa2llG2xD1Ye1a0tHRb+/52J3KlfdpSY4t7JsL6qeLp+3A23CI4UqmyZ30eMXK5DLlcjUYTiJ9fPN3dHVRVZfSsVfXzprT4FFs2vEtZ6fk5X4/Vav9qpvJ0Hd1m908Pcjq/ks0fHKCssNrtx/op4en7cDbcIji1tcepq8tGJJIik6mQybzQaALQ6aKRydRERMyktNRCa+vQpnQ838jOOkR21sArbf7UsVrsb9PSgqEtTTtcso8Ukn1EmB3gh3j6PpwNt8VwbDYbNpuZzk4znZ0ttLVVUld3goiImXh5heLnF+8ywUmbtpibbn+MdmMbrS0GamtKKS8tJDvzG4oKsl1yjIEIDonkwouvIzo2idCwaOrqKtm3639s/+pDh66jVCrjP+8e7FuS+ExOnUjnH4/f6lY7R4Pe8y8tGLzHoY/w58JfziRmbBihUQHUVxnYszGdbZ8dwmb9/jtjqUzC6zse7f96ZpTw1O/fdNruKsRiMXMvTiVlejzhMUH4BfnQ1myktrKJ3MwSvnhzt0PX5emP7yNA78P/u+N18o87evbeOg0vbHgQgJsX/wVzl90Due3RVUyamciXb+9m8wf9T/Kl8Vbx3P8ewNLdzV3L/0Gnqf/YzHDug7vwaNDYau2mru4kXl6hqNX+LmtXoVTR1tqCxkuLr18QkdEJpE1bzIpVv6O4MId1rz5B2emzr8I5HOYtXMH1N60BoLHBfjPDwsdw1a//gEKhZsMXr/eVlUhkfLX+beQKJUqlCrlCRbA+kqiYsS63q5fX/3wtUqnzInA/5Jm3d5KV73pv02qxC8Rgf+jzL53CDfddAkBjrX1u6rCYIK656yIUKjnr39nTV1YilbL5/f3IlTIUKjkKpZzgcD+iE0L7bdtVRCeEcuMDy4lKCKHbbKGhxoDV0o1voBbfQC2JE6PY+N+9dJoGFysZaJ339H0nmb54AotWTOWrj75xENte0uYnI5VJOLTz+IBiA0O/DwB6/QSuvPI1AFpaKnnnnSsGXfdseHyUqnfVTauL1nQGOLBnAwf22Fc7UCjU6EMjSRyXyoKlq4gZk8yDj77KY2uupaFu+BNQ94dMruCFp+8nJ+sQFks3crmCG2/7M1NnLGXZihvYvH4dFov9PDs72/n0g+cd6s+YfRG33Pn/XGrTmSRGB6OQn/sWq5QjWyNqIHpjB2UFg1tLXCaX8tzDH5B9pACLxYpcIePmP13OtIXjueTa2Wx6bx+Wnu5BZ0cnH/9nu0P9mUtS+N0jV7r2JM5A5+fFH9Zej0wh5c2169n/1TEs3XZ7AkJ8efqjewGw4ex1DYTNYQ6+7+ul7z1BU30rASG+pEyLJ/Ogc5xvxiL70s8Ht599Rsuh3gf4fh20XitdhccFR6Oxr13tqlU3f0hnZzuni09xuvgU+/ds5N41zzImPoVLL7+Rda+69uHeseUjsjL29/3f1dXJ++vWMnXGUhQKNX4Beupqys/SgnuZ85tnRu3YAB3tnVSV1tPabBxU+e2fHXZ4sLo6zbz33GamLRyPQqXAP9iH2srRWd4E4Nb/uwKtr4YXH/uYI7sdu+otjd+vs9ZfN29ABniWLRYru7/8lituWsjiK6Y5CY7Oz4uxk6JpbmzjRPrZV2AY6n0Ax3MYyAsbDh4VHLFYSmBgMjablbq6E+euMELajS2s/+w17l3zPMkpM9x+PICW5kZampvQ6nzx9w8eVcEZbV5/6osRt9Hc2EZLkxGtrwa/YO2oCU5EbDDjL4ijprzBSWx+iGgIHsGZsR6x2FGodq//lst+PY8JU+MICvOntuL7JX4vmJ+MSCzi4I7j5xzqHs59qKo6zquvLgZwaRqLRzONQ0MvQC73pq4um85O5/WnXYFcoSJh3GRmzL6IhUtXERZuXwHUP0CPROIZfW032vNqxOJzx08Ezo2x1d4Nt6dajA5x4yMAKCscRLdkCB6Og1aIHM+vpcnI4V3HEYlELLp8qsO+aYvGA/DN1oxBH2so2GwWurra6Opqw2x23VSlHvNwAgPHo9NF0dpaQX394BYbGwqR0QmsWLWaCRNnIZH2f1oKpbpPDNyJbdTnxhdwNWove1a4yxPnzvAe+tOp7Z8eYtaFk5i7bDKfv76DTpMZvyAd8eMjKcmr5HT+6I88DQWPCI5ePxl//0RaWysoKzvg8kzjlMmzueO+tTTUVfGf5/+PkqIc6uuqEInEqDXePPPyFmQyORLJz+vTsdEepTqf6O3KhUUHDbsNUT/B5N4gONDv77M4t5K846dJmBDF9CUT2bPhKNMWjkckErF307Fh2zJauFVwRCIRoaEX4OMTS3NzKRUVB10agAJ7fsuNq/+MWCzmr4/eSFvb90v92mxWjG3NfW+ln1sXZ7RHqc4nTudVYbPZCIsJYuKMBKcg7tl+171D2iovhdO+3lEuAIm0/xfi1o8PkjAhisWXT2XPhqNMXzwBc1f3OUenfoy4TXCkUgUREbNRqwOorc2mrs49CXgRUQlodb40NdY6iM2ZWHuGpmUy+VlaEp0xFGg7L773Gu1RqvOJ2spG9n2Vwdxlqdz26JV89PI2vvsmF1NHFxGxehYsTxuwbmNdC4GhvoRFB/YrVBaLBYlEgmQAb/TYvlPUVxuIjNOzcMUFRCeEcnB7lls/UvX2DiEubhFKpRcNDUXk5W1zSbtuERyVypeIiDlIJDJKSw/Q2uq+kZreDx99/YKYMnUh6Ud29e0LDApj5dV3olJ7AfaA8kAkJy9nwQJ7El9x8V42bXrAbTYL/DT58MWt+Ph7kzItnt/cf5nDvlPflQDQaerC1O64lG5FSS2JE6NYsnI6R/ec7Oue6SMDuOLGhUgkdqEZSHCsVitbP/6Ga+9exg33XQrg9u6U2dzBjBmrEYullJcf/TELjojo6EWIxVIsli6Cg1MIDk7pt6TBUEh9fe6IjlZbU0ZWxgFSJs/ijvvWUlJ0kmZDHaFhsQQEhbFv9/8oLckjMjoBpVI9YDsKhabv764u1y8gpvPx5/Jf3uawLUgfCYA+JIrf3Pqww77MY/vJOPq1y+04X9D5ebHy5kUO24LD7Nnr+kh/bnxgucO+7w7mcmzfyAYrjK0dPP3Hd5kyZxzxEyLxDdRSVVrPqYxiDI1t/P2/d1NbSmcAxQAAAnxJREFU2eRU76sPDjB3WSp+QTr+9t+7qa1sROujQaNVcWzfSZrqWvAN1CI/S/d3z6YMVvx2ARpvFdVlDZzMKB7RuZwLk8lAefkxIiOnotNFuKxdNwiODau1G7FYikQiRyIZuBsjkShdcsSX/v0gF116PVNnLCU0PBZfvyCKC7N5+/W/cuL4Ye649x92wVFpBmxDJvtejFw5DNiLSu3F3IWX97vPxzfAaV9F2dmTuX7uqLyUzLuk/wm7fPy9nfaVF7su0TR930nS95102JY6x/6JSk1Zg1P52spGnrzzDa66/UIi44LR+mo4nV/Fzi+OcHTPCR55+Ra74CgGjqV1dnSSf/w0k2aOZfunh1weC+2P5uYyYCrt7a5bJlhYeVNAYIQoVXKeeOt2gkL9ePqP75B1uMDlx5g0cyz3PHU1DTXNrLnu2b6PPN3JzJm3k5r6a06c+JJdu55ySZvCjH8CAkNEJBLh4+9FSFQgiSlRzLl4Cv5BWnZ9+a1LxUapVhCdGMKMxSnMWTaZbrOFFx79yCNiA+DnFwdAdvbIM8Z7EQRHQGAI/OX11USMCe4L9IJ9hsH3nv+K7Z+6bm6jSTMSuedv1/R909RU38rbT2+g+JRn8qUUCi1hYZMoKtpLba3rEnUFwREQGAKdHWYMDUYM9S2U5FaSm1nCsf2nMHe5bvYDAGNbB4aGNsqLajh+OJ+vNxw96xQUrmbWrDtpba1hx47HXdquEMMREBBwQqsNw2Lpwmh0XcAYBA9HQECgH1pa3NN1+3l9XCQgIDCqCIIjICDgMQTBERAQ8BiC4AgICHgMQXAEBAQ8hiA4AgICHkMQHAEBAY8hCI6AgIDH+P/om5WFDV/7mwAAAABJRU5ErkJggg==;" parent="1" vertex="1">
          <mxGeometry x="660" y="614.5" width="284" height="71" as="geometry" />
        </mxCell>
        <mxCell id="k4Zpvjsy6rELyzZ7Q7Eu-33" style="edgeStyle=none;rounded=0;orthogonalLoop=1;jettySize=auto;html=1;fontFamily=Comfortaa;fontSource=https%3A%2F%2Ffonts.googleapis.com%2Fcss%3Ffamily%3DComfortaa;" parent="1" source="k4Zpvjsy6rELyzZ7Q7Eu-31" target="k4Zpvjsy6rELyzZ7Q7Eu-32" edge="1">
          <mxGeometry relative="1" as="geometry">
            <mxPoint x="110" y="610" as="targetPoint" />
          </mxGeometry>
        </mxCell>
        <mxCell id="k4Zpvjsy6rELyzZ7Q7Eu-31" value="Primitive" style="rounded=0;whiteSpace=wrap;html=1;fontFamily=Comfortaa;fontSource=https%3A%2F%2Ffonts.googleapis.com%2Fcss%3Ffamily%3DComfortaa;fontSize=20;" parent="1" vertex="1">
          <mxGeometry x="50" y="520" width="120" height="60" as="geometry" />
        </mxCell>
        <mxCell id="k4Zpvjsy6rELyzZ7Q7Eu-32" value="true.toString()" style="rounded=0;whiteSpace=wrap;html=1;fontFamily=Comfortaa;fontSource=https%3A%2F%2Ffonts.googleapis.com%2Fcss%3Ffamily%3DComfortaa;fontSize=20;" parent="1" vertex="1">
          <mxGeometry x="20" y="614.5" width="180" height="60" as="geometry" />
        </mxCell>
        <mxCell id="k4Zpvjsy6rELyzZ7Q7Eu-34" value="Object Wrapper" style="text;html=1;strokeColor=none;fillColor=none;align=center;verticalAlign=middle;whiteSpace=wrap;rounded=0;fontFamily=Comfortaa;fontSource=https%3A%2F%2Ffonts.googleapis.com%2Fcss%3Ffamily%3DComfortaa;fontSize=20;fontColor=#666666;fontStyle=2" parent="1" vertex="1">
          <mxGeometry x="80" y="700" width="60" height="30" as="geometry" />
        </mxCell>
      </root>
    </mxGraphModel>
  </diagram>
  <diagram id="cJVfpGc6TuGJnPlzD5TT" name="Array.isArray()">
    <mxGraphModel dx="1181" dy="668" grid="1" gridSize="10" guides="1" tooltips="1" connect="1" arrows="1" fold="1" page="1" pageScale="1" pageWidth="1700" pageHeight="1100" math="0" shadow="0">
      <root>
        <mxCell id="s3QcPQxZ7YLk9l_ESSbD-0" />
        <mxCell id="s3QcPQxZ7YLk9l_ESSbD-1" parent="s3QcPQxZ7YLk9l_ESSbD-0" />
        <mxCell id="s3QcPQxZ7YLk9l_ESSbD-2" value="Array.isArray() is used to test if given object is array" style="rounded=0;whiteSpace=wrap;html=1;fontFamily=Comfortaa;fontSource=https%3A%2F%2Ffonts.googleapis.com%2Fcss%3Ffamily%3DComfortaa;fontSize=20;fontColor=#000000;" parent="s3QcPQxZ7YLk9l_ESSbD-1" vertex="1">
          <mxGeometry x="420" y="390" width="320" height="60" as="geometry" />
        </mxCell>
        <mxCell id="s3QcPQxZ7YLk9l_ESSbD-4" style="edgeStyle=none;rounded=0;orthogonalLoop=1;jettySize=auto;html=1;fontFamily=Comfortaa;fontSource=https%3A%2F%2Ffonts.googleapis.com%2Fcss%3Ffamily%3DComfortaa;fontSize=20;fontColor=#666666;" parent="s3QcPQxZ7YLk9l_ESSbD-1" source="s3QcPQxZ7YLk9l_ESSbD-3" target="s3QcPQxZ7YLk9l_ESSbD-2" edge="1">
          <mxGeometry relative="1" as="geometry" />
        </mxCell>
        <mxCell id="s3QcPQxZ7YLk9l_ESSbD-3" value="You can&#39;t use typeof operator because array is object" style="text;html=1;strokeColor=none;fillColor=none;align=center;verticalAlign=middle;whiteSpace=wrap;rounded=0;fontFamily=Comfortaa;fontSource=https%3A%2F%2Ffonts.googleapis.com%2Fcss%3Ffamily%3DComfortaa;fontSize=20;fontColor=#000000;" parent="s3QcPQxZ7YLk9l_ESSbD-1" vertex="1">
          <mxGeometry x="40" y="405" width="270" height="30" as="geometry" />
        </mxCell>
      </root>
    </mxGraphModel>
  </diagram>
  <diagram id="ttF_B2vLZ2Rh-6PeZTUZ" name="Pass by Value&amp;Reference">
    <mxGraphModel dx="1181" dy="668" grid="1" gridSize="10" guides="1" tooltips="1" connect="1" arrows="1" fold="1" page="1" pageScale="1" pageWidth="1700" pageHeight="1100" math="0" shadow="0">
      <root>
        <mxCell id="b2LPGF3QorFjGjKCmys3-0" />
        <mxCell id="b2LPGF3QorFjGjKCmys3-1" parent="b2LPGF3QorFjGjKCmys3-0" />
        <mxCell id="I9S0OmzloKx8tnWxDKKH-0" value="" style="shape=table;html=1;whiteSpace=wrap;startSize=0;container=1;collapsible=0;childLayout=tableLayout;fontFamily=Comfortaa;fontSource=https%3A%2F%2Ffonts.googleapis.com%2Fcss%3Ffamily%3DComfortaa;fontSize=35;" parent="b2LPGF3QorFjGjKCmys3-1" vertex="1">
          <mxGeometry x="590" y="240" width="180" height="80" as="geometry" />
        </mxCell>
        <mxCell id="I9S0OmzloKx8tnWxDKKH-1" value="" style="shape=tableRow;horizontal=0;startSize=0;swimlaneHead=0;swimlaneBody=0;top=0;left=0;bottom=0;right=0;collapsible=0;dropTarget=0;fillColor=none;points=[[0,0.5],[1,0.5]];portConstraint=eastwest;fontFamily=Comfortaa;fontSource=https%3A%2F%2Ffonts.googleapis.com%2Fcss%3Ffamily%3DComfortaa;fontSize=35;" parent="I9S0OmzloKx8tnWxDKKH-0" vertex="1">
          <mxGeometry width="180" height="40" as="geometry" />
        </mxCell>
        <mxCell id="I9S0OmzloKx8tnWxDKKH-2" value="a" style="shape=partialRectangle;html=1;whiteSpace=wrap;connectable=0;fillColor=none;top=0;left=0;bottom=0;right=0;overflow=hidden;fontFamily=Comfortaa;fontSource=https%3A%2F%2Ffonts.googleapis.com%2Fcss%3Ffamily%3DComfortaa;fontSize=35;" parent="I9S0OmzloKx8tnWxDKKH-1" vertex="1">
          <mxGeometry width="60" height="40" as="geometry">
            <mxRectangle width="60" height="40" as="alternateBounds" />
          </mxGeometry>
        </mxCell>
        <mxCell id="I9S0OmzloKx8tnWxDKKH-3" value="b" style="shape=partialRectangle;html=1;whiteSpace=wrap;connectable=0;fillColor=none;top=0;left=0;bottom=0;right=0;overflow=hidden;fontFamily=Comfortaa;fontSource=https%3A%2F%2Ffonts.googleapis.com%2Fcss%3Ffamily%3DComfortaa;fontSize=35;" parent="I9S0OmzloKx8tnWxDKKH-1" vertex="1">
          <mxGeometry x="60" width="60" height="40" as="geometry">
            <mxRectangle width="60" height="40" as="alternateBounds" />
          </mxGeometry>
        </mxCell>
        <mxCell id="I9S0OmzloKx8tnWxDKKH-4" value="c" style="shape=partialRectangle;html=1;whiteSpace=wrap;connectable=0;fillColor=none;top=0;left=0;bottom=0;right=0;overflow=hidden;fontFamily=Comfortaa;fontSource=https%3A%2F%2Ffonts.googleapis.com%2Fcss%3Ffamily%3DComfortaa;fontSize=35;" parent="I9S0OmzloKx8tnWxDKKH-1" vertex="1">
          <mxGeometry x="120" width="60" height="40" as="geometry">
            <mxRectangle width="60" height="40" as="alternateBounds" />
          </mxGeometry>
        </mxCell>
        <mxCell id="I9S0OmzloKx8tnWxDKKH-5" value="" style="shape=tableRow;horizontal=0;startSize=0;swimlaneHead=0;swimlaneBody=0;top=0;left=0;bottom=0;right=0;collapsible=0;dropTarget=0;fillColor=none;points=[[0,0.5],[1,0.5]];portConstraint=eastwest;fontFamily=Comfortaa;fontSource=https%3A%2F%2Ffonts.googleapis.com%2Fcss%3Ffamily%3DComfortaa;fontSize=35;" parent="I9S0OmzloKx8tnWxDKKH-0" vertex="1">
          <mxGeometry y="40" width="180" height="40" as="geometry" />
        </mxCell>
        <mxCell id="I9S0OmzloKx8tnWxDKKH-6" value="10" style="shape=partialRectangle;html=1;whiteSpace=wrap;connectable=0;fillColor=none;top=0;left=0;bottom=0;right=0;overflow=hidden;fontFamily=Comfortaa;fontSource=https%3A%2F%2Ffonts.googleapis.com%2Fcss%3Ffamily%3DComfortaa;fontSize=35;" parent="I9S0OmzloKx8tnWxDKKH-5" vertex="1">
          <mxGeometry width="60" height="40" as="geometry">
            <mxRectangle width="60" height="40" as="alternateBounds" />
          </mxGeometry>
        </mxCell>
        <mxCell id="I9S0OmzloKx8tnWxDKKH-7" value="2" style="shape=partialRectangle;html=1;whiteSpace=wrap;connectable=0;fillColor=none;top=0;left=0;bottom=0;right=0;overflow=hidden;fontFamily=Comfortaa;fontSource=https%3A%2F%2Ffonts.googleapis.com%2Fcss%3Ffamily%3DComfortaa;fontSize=35;" parent="I9S0OmzloKx8tnWxDKKH-5" vertex="1">
          <mxGeometry x="60" width="60" height="40" as="geometry">
            <mxRectangle width="60" height="40" as="alternateBounds" />
          </mxGeometry>
        </mxCell>
        <mxCell id="I9S0OmzloKx8tnWxDKKH-8" value="3" style="shape=partialRectangle;html=1;whiteSpace=wrap;connectable=0;fillColor=none;top=0;left=0;bottom=0;right=0;overflow=hidden;fontFamily=Comfortaa;fontSource=https%3A%2F%2Ffonts.googleapis.com%2Fcss%3Ffamily%3DComfortaa;fontSize=35;" parent="I9S0OmzloKx8tnWxDKKH-5" vertex="1">
          <mxGeometry x="120" width="60" height="40" as="geometry">
            <mxRectangle width="60" height="40" as="alternateBounds" />
          </mxGeometry>
        </mxCell>
        <mxCell id="I9S0OmzloKx8tnWxDKKH-13" value="Pass by value" style="text;html=1;strokeColor=none;fillColor=none;align=center;verticalAlign=middle;whiteSpace=wrap;rounded=0;fontFamily=Comfortaa;fontSource=https%3A%2F%2Ffonts.googleapis.com%2Fcss%3Ffamily%3DComfortaa;fontSize=35;" parent="b2LPGF3QorFjGjKCmys3-1" vertex="1">
          <mxGeometry x="510" y="190" width="340" height="30" as="geometry" />
        </mxCell>
        <mxCell id="I9S0OmzloKx8tnWxDKKH-14" value="" style="shape=table;html=1;whiteSpace=wrap;startSize=0;container=1;collapsible=0;childLayout=tableLayout;fontFamily=Comfortaa;fontSource=https%3A%2F%2Ffonts.googleapis.com%2Fcss%3Ffamily%3DComfortaa;fontSize=35;" parent="b2LPGF3QorFjGjKCmys3-1" vertex="1">
          <mxGeometry x="910" y="240" width="230" height="120" as="geometry" />
        </mxCell>
        <mxCell id="I9S0OmzloKx8tnWxDKKH-15" value="" style="shape=tableRow;horizontal=0;startSize=0;swimlaneHead=0;swimlaneBody=0;top=0;left=0;bottom=0;right=0;collapsible=0;dropTarget=0;fillColor=none;points=[[0,0.5],[1,0.5]];portConstraint=eastwest;fontFamily=Comfortaa;fontSource=https%3A%2F%2Ffonts.googleapis.com%2Fcss%3Ffamily%3DComfortaa;fontSize=35;" parent="I9S0OmzloKx8tnWxDKKH-14" vertex="1">
          <mxGeometry width="230" height="40" as="geometry" />
        </mxCell>
        <mxCell id="I9S0OmzloKx8tnWxDKKH-16" value="a" style="shape=partialRectangle;html=1;whiteSpace=wrap;connectable=0;fillColor=none;top=0;left=0;bottom=0;right=0;overflow=hidden;fontFamily=Comfortaa;fontSource=https%3A%2F%2Ffonts.googleapis.com%2Fcss%3Ffamily%3DComfortaa;fontSize=35;" parent="I9S0OmzloKx8tnWxDKKH-15" vertex="1">
          <mxGeometry width="60" height="40" as="geometry">
            <mxRectangle width="60" height="40" as="alternateBounds" />
          </mxGeometry>
        </mxCell>
        <mxCell id="I9S0OmzloKx8tnWxDKKH-17" value="" style="shape=partialRectangle;html=1;whiteSpace=wrap;connectable=0;fillColor=none;top=0;left=0;bottom=0;right=0;overflow=hidden;fontFamily=Comfortaa;fontSource=https%3A%2F%2Ffonts.googleapis.com%2Fcss%3Ffamily%3DComfortaa;fontSize=35;" parent="I9S0OmzloKx8tnWxDKKH-15" vertex="1">
          <mxGeometry x="60" width="100" height="40" as="geometry">
            <mxRectangle width="100" height="40" as="alternateBounds" />
          </mxGeometry>
        </mxCell>
        <mxCell id="I9S0OmzloKx8tnWxDKKH-18" value="b" style="shape=partialRectangle;html=1;whiteSpace=wrap;connectable=0;fillColor=none;top=0;left=0;bottom=0;right=0;overflow=hidden;fontFamily=Comfortaa;fontSource=https%3A%2F%2Ffonts.googleapis.com%2Fcss%3Ffamily%3DComfortaa;fontSize=35;" parent="I9S0OmzloKx8tnWxDKKH-15" vertex="1">
          <mxGeometry x="160" width="70" height="40" as="geometry">
            <mxRectangle width="70" height="40" as="alternateBounds" />
          </mxGeometry>
        </mxCell>
        <mxCell id="I9S0OmzloKx8tnWxDKKH-19" value="" style="shape=tableRow;horizontal=0;startSize=0;swimlaneHead=0;swimlaneBody=0;top=0;left=0;bottom=0;right=0;collapsible=0;dropTarget=0;fillColor=none;points=[[0,0.5],[1,0.5]];portConstraint=eastwest;fontFamily=Comfortaa;fontSource=https%3A%2F%2Ffonts.googleapis.com%2Fcss%3Ffamily%3DComfortaa;fontSize=35;" parent="I9S0OmzloKx8tnWxDKKH-14" vertex="1">
          <mxGeometry y="40" width="230" height="40" as="geometry" />
        </mxCell>
        <mxCell id="I9S0OmzloKx8tnWxDKKH-20" value="002" style="shape=partialRectangle;html=1;whiteSpace=wrap;connectable=0;fillColor=none;top=0;left=0;bottom=0;right=0;overflow=hidden;fontFamily=Comfortaa;fontSource=https%3A%2F%2Ffonts.googleapis.com%2Fcss%3Ffamily%3DComfortaa;fontSize=35;" parent="I9S0OmzloKx8tnWxDKKH-19" vertex="1">
          <mxGeometry width="60" height="40" as="geometry">
            <mxRectangle width="60" height="40" as="alternateBounds" />
          </mxGeometry>
        </mxCell>
        <mxCell id="I9S0OmzloKx8tnWxDKKH-21" value="[&#39;a&#39;,&#39;b&#39;]" style="shape=partialRectangle;html=1;whiteSpace=wrap;connectable=0;fillColor=none;top=0;left=0;bottom=0;right=0;overflow=hidden;fontFamily=Comfortaa;fontSource=https%3A%2F%2Ffonts.googleapis.com%2Fcss%3Ffamily%3DComfortaa;fontSize=35;" parent="I9S0OmzloKx8tnWxDKKH-19" vertex="1">
          <mxGeometry x="60" width="100" height="40" as="geometry">
            <mxRectangle width="100" height="40" as="alternateBounds" />
          </mxGeometry>
        </mxCell>
        <mxCell id="I9S0OmzloKx8tnWxDKKH-22" value="002" style="shape=partialRectangle;html=1;whiteSpace=wrap;connectable=0;fillColor=none;top=0;left=0;bottom=0;right=0;overflow=hidden;fontFamily=Comfortaa;fontSource=https%3A%2F%2Ffonts.googleapis.com%2Fcss%3Ffamily%3DComfortaa;fontSize=35;" parent="I9S0OmzloKx8tnWxDKKH-19" vertex="1">
          <mxGeometry x="160" width="70" height="40" as="geometry">
            <mxRectangle width="70" height="40" as="alternateBounds" />
          </mxGeometry>
        </mxCell>
        <mxCell id="I9S0OmzloKx8tnWxDKKH-23" style="shape=tableRow;horizontal=0;startSize=0;swimlaneHead=0;swimlaneBody=0;top=0;left=0;bottom=0;right=0;collapsible=0;dropTarget=0;fillColor=none;points=[[0,0.5],[1,0.5]];portConstraint=eastwest;fontFamily=Comfortaa;fontSource=https%3A%2F%2Ffonts.googleapis.com%2Fcss%3Ffamily%3DComfortaa;fontSize=35;" parent="I9S0OmzloKx8tnWxDKKH-14" vertex="1">
          <mxGeometry y="80" width="230" height="40" as="geometry" />
        </mxCell>
        <mxCell id="I9S0OmzloKx8tnWxDKKH-24" value="" style="shape=partialRectangle;html=1;whiteSpace=wrap;connectable=0;fillColor=none;top=0;left=0;bottom=0;right=0;overflow=hidden;fontFamily=Comfortaa;fontSource=https%3A%2F%2Ffonts.googleapis.com%2Fcss%3Ffamily%3DComfortaa;fontSize=35;" parent="I9S0OmzloKx8tnWxDKKH-23" vertex="1">
          <mxGeometry width="60" height="40" as="geometry">
            <mxRectangle width="60" height="40" as="alternateBounds" />
          </mxGeometry>
        </mxCell>
        <mxCell id="I9S0OmzloKx8tnWxDKKH-25" value="002" style="shape=partialRectangle;html=1;whiteSpace=wrap;connectable=0;fillColor=none;top=0;left=0;bottom=0;right=0;overflow=hidden;fontFamily=Comfortaa;fontSource=https%3A%2F%2Ffonts.googleapis.com%2Fcss%3Ffamily%3DComfortaa;fontSize=35;" parent="I9S0OmzloKx8tnWxDKKH-23" vertex="1">
          <mxGeometry x="60" width="100" height="40" as="geometry">
            <mxRectangle width="100" height="40" as="alternateBounds" />
          </mxGeometry>
        </mxCell>
        <mxCell id="I9S0OmzloKx8tnWxDKKH-26" value="" style="shape=partialRectangle;html=1;whiteSpace=wrap;connectable=0;fillColor=none;top=0;left=0;bottom=0;right=0;overflow=hidden;fontFamily=Comfortaa;fontSource=https%3A%2F%2Ffonts.googleapis.com%2Fcss%3Ffamily%3DComfortaa;fontSize=35;" parent="I9S0OmzloKx8tnWxDKKH-23" vertex="1">
          <mxGeometry x="160" width="70" height="40" as="geometry">
            <mxRectangle width="70" height="40" as="alternateBounds" />
          </mxGeometry>
        </mxCell>
        <mxCell id="I9S0OmzloKx8tnWxDKKH-27" value="Pass by reference" style="text;html=1;strokeColor=none;fillColor=none;align=center;verticalAlign=middle;whiteSpace=wrap;rounded=0;fontFamily=Comfortaa;fontSource=https%3A%2F%2Ffonts.googleapis.com%2Fcss%3Ffamily%3DComfortaa;fontSize=35;" parent="b2LPGF3QorFjGjKCmys3-1" vertex="1">
          <mxGeometry x="850" y="200" width="340" height="30" as="geometry" />
        </mxCell>
      </root>
    </mxGraphModel>
  </diagram>
  <diagram id="9vWCTNvFpaBvPIxFoTVL" name="Shallow &amp; Deep Clone">
    <mxGraphModel dx="1181" dy="668" grid="1" gridSize="10" guides="1" tooltips="1" connect="1" arrows="1" fold="1" page="1" pageScale="1" pageWidth="1700" pageHeight="1100" math="0" shadow="0">
      <root>
        <mxCell id="Ae2msbO1qBCfMG0vu2LC-0" />
        <mxCell id="Ae2msbO1qBCfMG0vu2LC-1" parent="Ae2msbO1qBCfMG0vu2LC-0" />
        <mxCell id="eJHKQi5sG8lWCjI9zgiu-0" style="rounded=0;orthogonalLoop=1;jettySize=auto;html=1;entryX=0;entryY=0.5;entryDx=0;entryDy=0;fontFamily=Comfortaa;fontSource=https%3A%2F%2Ffonts.googleapis.com%2Fcss%3Ffamily%3DComfortaa;fontSize=20;exitX=1;exitY=0.5;exitDx=0;exitDy=0;" parent="Ae2msbO1qBCfMG0vu2LC-1" source="eJHKQi5sG8lWCjI9zgiu-2" target="eJHKQi5sG8lWCjI9zgiu-3" edge="1">
          <mxGeometry relative="1" as="geometry">
            <mxPoint x="550" y="230" as="sourcePoint" />
          </mxGeometry>
        </mxCell>
        <mxCell id="eJHKQi5sG8lWCjI9zgiu-1" style="rounded=0;orthogonalLoop=1;jettySize=auto;html=1;fontFamily=Comfortaa;fontSource=https%3A%2F%2Ffonts.googleapis.com%2Fcss%3Ffamily%3DComfortaa;fontSize=20;exitX=1;exitY=0.5;exitDx=0;exitDy=0;" parent="Ae2msbO1qBCfMG0vu2LC-1" source="eJHKQi5sG8lWCjI9zgiu-2" target="eJHKQi5sG8lWCjI9zgiu-4" edge="1">
          <mxGeometry relative="1" as="geometry" />
        </mxCell>
        <mxCell id="eJHKQi5sG8lWCjI9zgiu-2" value="Array" style="rounded=0;whiteSpace=wrap;html=1;fontFamily=Comfortaa;fontSource=https%3A%2F%2Ffonts.googleapis.com%2Fcss%3Ffamily%3DComfortaa;fontSize=20;" parent="Ae2msbO1qBCfMG0vu2LC-1" vertex="1">
          <mxGeometry x="420" y="190" width="120" height="60" as="geometry" />
        </mxCell>
        <mxCell id="eJHKQi5sG8lWCjI9zgiu-3" value="[].concat(arr)" style="rounded=0;whiteSpace=wrap;html=1;fontFamily=Comfortaa;fontSource=https%3A%2F%2Ffonts.googleapis.com%2Fcss%3Ffamily%3DComfortaa;fontSize=20;" parent="Ae2msbO1qBCfMG0vu2LC-1" vertex="1">
          <mxGeometry x="660" y="110" width="240" height="60" as="geometry" />
        </mxCell>
        <mxCell id="eJHKQi5sG8lWCjI9zgiu-4" value="[...arr]" style="rounded=0;whiteSpace=wrap;html=1;fontFamily=Comfortaa;fontSource=https%3A%2F%2Ffonts.googleapis.com%2Fcss%3Ffamily%3DComfortaa;fontSize=20;" parent="Ae2msbO1qBCfMG0vu2LC-1" vertex="1">
          <mxGeometry x="670" y="260" width="240" height="60" as="geometry" />
        </mxCell>
        <mxCell id="eJHKQi5sG8lWCjI9zgiu-5" style="edgeStyle=none;rounded=0;orthogonalLoop=1;jettySize=auto;html=1;entryX=1;entryY=0.5;entryDx=0;entryDy=0;fontFamily=Comfortaa;fontSource=https%3A%2F%2Ffonts.googleapis.com%2Fcss%3Ffamily%3DComfortaa;fontSize=20;" parent="Ae2msbO1qBCfMG0vu2LC-1" source="eJHKQi5sG8lWCjI9zgiu-2" target="eJHKQi5sG8lWCjI9zgiu-2" edge="1">
          <mxGeometry relative="1" as="geometry" />
        </mxCell>
        <mxCell id="eJHKQi5sG8lWCjI9zgiu-6" style="edgeStyle=none;rounded=0;orthogonalLoop=1;jettySize=auto;html=1;entryX=0;entryY=0.5;entryDx=0;entryDy=0;fontFamily=Comfortaa;fontSource=https%3A%2F%2Ffonts.googleapis.com%2Fcss%3Ffamily%3DComfortaa;fontSize=20;exitX=1;exitY=0.5;exitDx=0;exitDy=0;" parent="Ae2msbO1qBCfMG0vu2LC-1" source="eJHKQi5sG8lWCjI9zgiu-8" target="eJHKQi5sG8lWCjI9zgiu-9" edge="1">
          <mxGeometry relative="1" as="geometry" />
        </mxCell>
        <mxCell id="eJHKQi5sG8lWCjI9zgiu-7" style="edgeStyle=none;rounded=0;orthogonalLoop=1;jettySize=auto;html=1;fontFamily=Comfortaa;fontSource=https%3A%2F%2Ffonts.googleapis.com%2Fcss%3Ffamily%3DComfortaa;fontSize=20;entryX=0;entryY=0.5;entryDx=0;entryDy=0;" parent="Ae2msbO1qBCfMG0vu2LC-1" target="eJHKQi5sG8lWCjI9zgiu-10" edge="1">
          <mxGeometry relative="1" as="geometry">
            <mxPoint x="550" y="500" as="sourcePoint" />
          </mxGeometry>
        </mxCell>
        <mxCell id="eJHKQi5sG8lWCjI9zgiu-8" value="Object" style="rounded=0;whiteSpace=wrap;html=1;fontFamily=Comfortaa;fontSource=https%3A%2F%2Ffonts.googleapis.com%2Fcss%3Ffamily%3DComfortaa;fontSize=20;" parent="Ae2msbO1qBCfMG0vu2LC-1" vertex="1">
          <mxGeometry x="430" y="470" width="120" height="60" as="geometry" />
        </mxCell>
        <mxCell id="eJHKQi5sG8lWCjI9zgiu-9" value="Object.assign({}, obj)" style="rounded=0;whiteSpace=wrap;html=1;fontFamily=Comfortaa;fontSource=https%3A%2F%2Ffonts.googleapis.com%2Fcss%3Ffamily%3DComfortaa;fontSize=20;" parent="Ae2msbO1qBCfMG0vu2LC-1" vertex="1">
          <mxGeometry x="650" y="390" width="240" height="60" as="geometry" />
        </mxCell>
        <mxCell id="eJHKQi5sG8lWCjI9zgiu-10" value="{...obj}" style="rounded=0;whiteSpace=wrap;html=1;fontFamily=Comfortaa;fontSource=https%3A%2F%2Ffonts.googleapis.com%2Fcss%3Ffamily%3DComfortaa;fontSize=20;" parent="Ae2msbO1qBCfMG0vu2LC-1" vertex="1">
          <mxGeometry x="660" y="510" width="240" height="60" as="geometry" />
        </mxCell>
        <mxCell id="eJHKQi5sG8lWCjI9zgiu-11" value="Shallow Clone" style="text;html=1;strokeColor=none;fillColor=none;align=center;verticalAlign=middle;whiteSpace=wrap;rounded=0;fontFamily=Comfortaa;fontSource=https%3A%2F%2Ffonts.googleapis.com%2Fcss%3Ffamily%3DComfortaa;fontSize=35;fontStyle=1" parent="Ae2msbO1qBCfMG0vu2LC-1" vertex="1">
          <mxGeometry x="670" y="40" width="60" height="30" as="geometry" />
        </mxCell>
        <mxCell id="eJHKQi5sG8lWCjI9zgiu-12" value="Deep Clone" style="text;html=1;strokeColor=none;fillColor=none;align=center;verticalAlign=middle;whiteSpace=wrap;rounded=0;fontFamily=Comfortaa;fontSource=https%3A%2F%2Ffonts.googleapis.com%2Fcss%3Ffamily%3DComfortaa;fontSize=35;fontStyle=1" parent="Ae2msbO1qBCfMG0vu2LC-1" vertex="1">
          <mxGeometry x="1210" y="40" width="60" height="30" as="geometry" />
        </mxCell>
        <mxCell id="eJHKQi5sG8lWCjI9zgiu-13" value="JSON.parse(JSON.stringify(obj))" style="rounded=0;whiteSpace=wrap;html=1;fontFamily=Comfortaa;fontSource=https%3A%2F%2Ffonts.googleapis.com%2Fcss%3Ffamily%3DComfortaa;fontSize=20;" parent="Ae2msbO1qBCfMG0vu2LC-1" vertex="1">
          <mxGeometry x="1060" y="150" width="390" height="60" as="geometry" />
        </mxCell>
        <mxCell id="eJHKQi5sG8lWCjI9zgiu-14" value="If you have a massive deep object, it will cause some performance" style="rounded=0;whiteSpace=wrap;html=1;fontFamily=Comfortaa;fontSource=https%3A%2F%2Ffonts.googleapis.com%2Fcss%3Ffamily%3DComfortaa;fontSize=20;fillColor=#f8cecc;strokeColor=#b85450;" parent="Ae2msbO1qBCfMG0vu2LC-1" vertex="1">
          <mxGeometry x="1060" y="280" width="390" height="60" as="geometry" />
        </mxCell>
        <mxCell id="C-nkaAK-E5ljL3uBO1Ph-0" value="Website" style="text;html=1;strokeColor=none;fillColor=none;align=center;verticalAlign=middle;whiteSpace=wrap;rounded=0;fontFamily=Comfortaa;fontSource=https%3A%2F%2Ffonts.googleapis.com%2Fcss%3Ffamily%3DComfortaa;fontSize=35;fontStyle=1" vertex="1" parent="Ae2msbO1qBCfMG0vu2LC-1">
          <mxGeometry x="1695" y="80" width="60" height="30" as="geometry" />
        </mxCell>
        <mxCell id="C-nkaAK-E5ljL3uBO1Ph-1" value="JS Comparison Table" style="rounded=0;whiteSpace=wrap;html=1;fontFamily=Comfortaa;fontSource=https%3A%2F%2Ffonts.googleapis.com%2Fcss%3Ffamily%3DComfortaa;fontSize=20;" vertex="1" parent="Ae2msbO1qBCfMG0vu2LC-1">
          <mxGeometry x="1530" y="150" width="390" height="60" as="geometry" />
        </mxCell>
      </root>
    </mxGraphModel>
  </diagram>
  <diagram id="k_4or0bX3COHHP0lx4f-" name="Static &amp; Dynamic Type">
    <mxGraphModel dx="2881" dy="668" grid="1" gridSize="10" guides="1" tooltips="1" connect="1" arrows="1" fold="1" page="1" pageScale="1" pageWidth="1700" pageHeight="1100" math="0" shadow="0">
      <root>
        <mxCell id="eCh1WCdjoA4WZ4kvy6Qm-0" />
        <mxCell id="eCh1WCdjoA4WZ4kvy6Qm-1" parent="eCh1WCdjoA4WZ4kvy6Qm-0" />
        <mxCell id="eCh1WCdjoA4WZ4kvy6Qm-3" value="Pros" style="swimlane;fontStyle=0;childLayout=stackLayout;horizontal=1;startSize=30;horizontalStack=0;resizeParent=1;resizeParentMax=0;resizeLast=0;collapsible=1;marginBottom=0;fontFamily=Comfortaa;fontSource=https%3A%2F%2Ffonts.googleapis.com%2Fcss%3Ffamily%3DComfortaa;fontSize=20;" vertex="1" parent="eCh1WCdjoA4WZ4kvy6Qm-1">
          <mxGeometry x="1480" y="380" width="270" height="90" as="geometry" />
        </mxCell>
        <mxCell id="eCh1WCdjoA4WZ4kvy6Qm-4" value="Document on itself" style="text;strokeColor=none;fillColor=none;align=left;verticalAlign=middle;spacingLeft=4;spacingRight=4;overflow=hidden;points=[[0,0.5],[1,0.5]];portConstraint=eastwest;rotatable=0;fontFamily=Comfortaa;fontSource=https%3A%2F%2Ffonts.googleapis.com%2Fcss%3Ffamily%3DComfortaa;fontSize=20;" vertex="1" parent="eCh1WCdjoA4WZ4kvy6Qm-3">
          <mxGeometry y="30" width="270" height="30" as="geometry" />
        </mxCell>
        <mxCell id="eCh1WCdjoA4WZ4kvy6Qm-5" value="Less bug about type" style="text;strokeColor=none;fillColor=none;align=left;verticalAlign=middle;spacingLeft=4;spacingRight=4;overflow=hidden;points=[[0,0.5],[1,0.5]];portConstraint=eastwest;rotatable=0;fontFamily=Comfortaa;fontSource=https%3A%2F%2Ffonts.googleapis.com%2Fcss%3Ffamily%3DComfortaa;fontSize=20;" vertex="1" parent="eCh1WCdjoA4WZ4kvy6Qm-3">
          <mxGeometry y="60" width="270" height="30" as="geometry" />
        </mxCell>
        <mxCell id="zsH5dh9wwaUS1mIvAQ8O-3" value="Static Type" style="text;html=1;strokeColor=none;fillColor=none;align=center;verticalAlign=middle;whiteSpace=wrap;rounded=0;fontFamily=Comfortaa;fontSource=https%3A%2F%2Ffonts.googleapis.com%2Fcss%3Ffamily%3DComfortaa;fontSize=35;fontStyle=1" vertex="1" parent="eCh1WCdjoA4WZ4kvy6Qm-1">
          <mxGeometry x="1760" y="290" width="60" height="30" as="geometry" />
        </mxCell>
        <mxCell id="zsH5dh9wwaUS1mIvAQ8O-4" value="Cons" style="swimlane;fontStyle=0;childLayout=stackLayout;horizontal=1;startSize=30;horizontalStack=0;resizeParent=1;resizeParentMax=0;resizeLast=0;collapsible=1;marginBottom=0;fontFamily=Comfortaa;fontSource=https%3A%2F%2Ffonts.googleapis.com%2Fcss%3Ffamily%3DComfortaa;fontSize=20;" vertex="1" parent="eCh1WCdjoA4WZ4kvy6Qm-1">
          <mxGeometry x="1820" y="380" width="400" height="60" as="geometry" />
        </mxCell>
        <mxCell id="zsH5dh9wwaUS1mIvAQ8O-5" value="Add another complexity to our code" style="text;strokeColor=none;fillColor=none;align=left;verticalAlign=middle;spacingLeft=4;spacingRight=4;overflow=hidden;points=[[0,0.5],[1,0.5]];portConstraint=eastwest;rotatable=0;fontFamily=Comfortaa;fontSource=https%3A%2F%2Ffonts.googleapis.com%2Fcss%3Ffamily%3DComfortaa;fontSize=20;" vertex="1" parent="zsH5dh9wwaUS1mIvAQ8O-4">
          <mxGeometry y="30" width="400" height="30" as="geometry" />
        </mxCell>
        <mxCell id="zsH5dh9wwaUS1mIvAQ8O-7" value="Dynamic Type" style="text;html=1;strokeColor=none;fillColor=none;align=center;verticalAlign=middle;whiteSpace=wrap;rounded=0;fontFamily=Comfortaa;fontSource=https%3A%2F%2Ffonts.googleapis.com%2Fcss%3Ffamily%3DComfortaa;fontSize=35;fontStyle=1" vertex="1" parent="eCh1WCdjoA4WZ4kvy6Qm-1">
          <mxGeometry x="440" y="150" width="60" height="30" as="geometry" />
        </mxCell>
        <mxCell id="zsH5dh9wwaUS1mIvAQ8O-8" value="Pros" style="swimlane;fontStyle=0;childLayout=stackLayout;horizontal=1;startSize=30;horizontalStack=0;resizeParent=1;resizeParentMax=0;resizeLast=0;collapsible=1;marginBottom=0;fontFamily=Comfortaa;fontSource=https%3A%2F%2Ffonts.googleapis.com%2Fcss%3Ffamily%3DComfortaa;fontSize=20;" vertex="1" parent="eCh1WCdjoA4WZ4kvy6Qm-1">
          <mxGeometry x="-150" y="260" width="630" height="90" as="geometry" />
        </mxCell>
        <mxCell id="zsH5dh9wwaUS1mIvAQ8O-9" value="Spend most time debug on another thing rather than type" style="text;strokeColor=none;fillColor=none;align=left;verticalAlign=middle;spacingLeft=4;spacingRight=4;overflow=hidden;points=[[0,0.5],[1,0.5]];portConstraint=eastwest;rotatable=0;fontFamily=Comfortaa;fontSource=https%3A%2F%2Ffonts.googleapis.com%2Fcss%3Ffamily%3DComfortaa;fontSize=20;" vertex="1" parent="zsH5dh9wwaUS1mIvAQ8O-8">
          <mxGeometry y="30" width="630" height="30" as="geometry" />
        </mxCell>
        <mxCell id="zsH5dh9wwaUS1mIvAQ8O-10" value="More flexible, code faster without thinking about type" style="text;strokeColor=none;fillColor=none;align=left;verticalAlign=middle;spacingLeft=4;spacingRight=4;overflow=hidden;points=[[0,0.5],[1,0.5]];portConstraint=eastwest;rotatable=0;fontFamily=Comfortaa;fontSource=https%3A%2F%2Ffonts.googleapis.com%2Fcss%3Ffamily%3DComfortaa;fontSize=20;" vertex="1" parent="zsH5dh9wwaUS1mIvAQ8O-8">
          <mxGeometry y="60" width="630" height="30" as="geometry" />
        </mxCell>
        <mxCell id="zsH5dh9wwaUS1mIvAQ8O-11" value="Cons" style="swimlane;fontStyle=0;childLayout=stackLayout;horizontal=1;startSize=30;horizontalStack=0;resizeParent=1;resizeParentMax=0;resizeLast=0;collapsible=1;marginBottom=0;fontFamily=Comfortaa;fontSource=https%3A%2F%2Ffonts.googleapis.com%2Fcss%3Ffamily%3DComfortaa;fontSize=20;" vertex="1" parent="eCh1WCdjoA4WZ4kvy6Qm-1">
          <mxGeometry x="550" y="260" width="420" height="60" as="geometry" />
        </mxCell>
        <mxCell id="zsH5dh9wwaUS1mIvAQ8O-12" value="Sometime it hard to tell what type is it" style="text;strokeColor=none;fillColor=none;align=left;verticalAlign=middle;spacingLeft=4;spacingRight=4;overflow=hidden;points=[[0,0.5],[1,0.5]];portConstraint=eastwest;rotatable=0;fontFamily=Comfortaa;fontSource=https%3A%2F%2Ffonts.googleapis.com%2Fcss%3Ffamily%3DComfortaa;fontSize=20;" vertex="1" parent="zsH5dh9wwaUS1mIvAQ8O-11">
          <mxGeometry y="30" width="420" height="30" as="geometry" />
        </mxCell>
        <mxCell id="zsH5dh9wwaUS1mIvAQ8O-13" value="" style="shape=image;verticalLabelPosition=bottom;labelBackgroundColor=default;verticalAlign=top;aspect=fixed;imageAspect=0;image=https://miro.medium.com/max/1400/1*BddwVWW6hFU0miT9DCbUWQ.png;" vertex="1" parent="eCh1WCdjoA4WZ4kvy6Qm-1">
          <mxGeometry x="730" y="130" width="929.45" height="454" as="geometry" />
        </mxCell>
        <mxCell id="pcntMnNOw0FLa9F8gBac-2" value="" style="shape=image;imageAspect=0;aspect=fixed;verticalLabelPosition=bottom;verticalAlign=top;fontFamily=Comfortaa;fontSource=https%3A%2F%2Ffonts.googleapis.com%2Fcss%3Ffamily%3DComfortaa;fontSize=35;image=https://cdn2.hexlet.io/derivations/image/original/eyJpZCI6ImVhYmFkZGE0ZDE2NGFlNmI5MDVkZDUzOTQ3OGE4NWYwLnBuZyIsInN0b3JhZ2UiOiJjYWNoZSJ9?signature=8df1085728dae1e8e84c5ceaa57460f20b87784e779bef3df3fccd1cdc169e7d;" vertex="1" parent="eCh1WCdjoA4WZ4kvy6Qm-1">
          <mxGeometry x="940" y="640" width="520" height="390" as="geometry" />
        </mxCell>
      </root>
    </mxGraphModel>
  </diagram>
</mxfile>
